<svg width="125" height="56" viewBox="0 0 125 56" fill="none" xmlns="http://www.w3.org/2000/svg">
<path d="M66.029 54.4931C65.2077 54.4931 64.574 54.0438 64.574 53.3155H65.296C65.3259 53.6528 65.5624 53.924 66.029 53.924C66.4956 53.924 66.7683 53.6702 66.7683 53.3202C66.7683 52.3271 64.5866 52.9718 64.5866 51.4569C64.5866 50.7349 65.1604 50.2856 66.0006 50.2856C66.7872 50.2856 67.3421 50.7002 67.402 51.4033H66.6564C66.6328 51.1259 66.39 50.8705 65.9644 50.8595C65.5734 50.8468 65.2723 51.0376 65.2723 51.4333C65.2723 52.3618 67.4493 51.7817 67.4493 53.284C67.4493 53.8988 66.9465 54.4899 66.0306 54.4899L66.029 54.4931Z" fill="#002E6D"/>
<path d="M69.6595 54.504C68.731 54.504 68.028 53.842 68.028 52.8189C68.028 51.7958 68.761 51.14 69.6895 51.14C70.618 51.14 71.351 51.7958 71.351 52.8189C71.351 53.842 70.5943 54.504 69.6595 54.504ZM69.6595 53.9192C70.1624 53.9192 70.659 53.5582 70.659 52.8189C70.659 52.0795 70.1797 51.7249 69.6769 51.7249C69.174 51.7249 68.7137 52.0795 68.7137 52.8189C68.7137 53.5582 69.1519 53.9192 69.6595 53.9192Z" fill="#002E6D"/>
<path d="M72.0178 50.0759H72.6909V54.452H72.0178V50.0759Z" fill="#002E6D"/>
<path d="M76.5294 54.4504H75.8547V54.0611C75.6419 54.3385 75.2746 54.4993 74.8916 54.4993C74.1286 54.4993 73.5485 54.0201 73.5485 53.1089V51.1936H74.2169V53.0096C74.2169 53.6071 74.5416 53.9145 75.0334 53.9145C75.5253 53.9145 75.8563 53.6071 75.8563 53.0096V51.1936H76.531V54.452L76.5294 54.4504Z" fill="#002E6D"/>
<path d="M78.5976 54.504C77.8173 54.504 77.2671 54.0422 77.2372 53.451H77.9355C77.9592 53.7174 78.213 53.9365 78.5866 53.9365C78.9602 53.9365 79.184 53.771 79.184 53.5456C79.184 52.9072 77.2924 53.2729 77.2924 52.0795C77.2924 51.5593 77.7779 51.14 78.5456 51.14C79.3133 51.14 79.7705 51.5357 79.8051 52.1867H79.132C79.1084 51.903 78.8892 51.7075 78.5219 51.7075C78.1546 51.7075 77.9718 51.8557 77.9718 52.0748C77.9718 52.7306 79.8099 52.3649 79.8461 53.5409C79.8461 54.091 79.3669 54.504 78.5976 54.504Z" fill="#002E6D"/>
<path d="M80.483 50.3298C80.483 50.087 80.6722 49.8978 80.915 49.8978C81.1577 49.8978 81.3406 50.087 81.3406 50.3298C81.3406 50.5725 81.1514 50.7617 80.915 50.7617C80.6785 50.7617 80.483 50.5725 80.483 50.3298ZM80.5713 51.1936H81.2444V54.452H80.5713V51.1936Z" fill="#002E6D"/>
<path d="M85.3131 54.4504H83.6689V50.3407H85.2359C86.1045 50.3407 86.5664 50.8199 86.5664 51.3985C86.5664 51.895 86.2653 52.1961 85.868 52.338C86.3063 52.4152 86.6609 52.8519 86.6609 53.3437C86.6609 53.9711 86.1518 54.4504 85.3131 54.4504ZM85.1776 50.8909H84.3436V52.0684H85.1776C85.6158 52.0684 85.8806 51.8619 85.8806 51.482C85.8806 51.1021 85.6142 50.8909 85.1776 50.8909ZM85.2311 52.617H84.3436V53.9002H85.2548C85.7104 53.9002 85.9878 53.6701 85.9878 53.2728C85.9878 52.8755 85.6804 52.617 85.2311 52.617Z" fill="#002E6D"/>
<path d="M88.7953 54.504C87.8605 54.504 87.17 53.842 87.17 52.8189C87.17 51.7958 87.8321 51.14 88.7953 51.14C89.7585 51.14 90.3796 51.7848 90.3796 52.7416C90.3796 52.8536 90.3733 52.9608 90.356 53.0727H87.8668C87.9141 53.6102 88.2988 53.9365 88.7953 53.9365C89.2099 53.9365 89.4401 53.7348 89.5646 53.481H90.2913C90.1085 54.0485 89.593 54.504 88.7953 54.504ZM87.8731 52.5288H89.6765C89.6655 52.0259 89.2682 51.7059 88.7654 51.7059C88.3098 51.7059 87.9425 52.0133 87.8731 52.5288Z" fill="#002E6D"/>
<path d="M91.0417 50.0759H91.7149V54.452H91.0417V50.0759Z" fill="#002E6D"/>
<path d="M93.9155 51.14C94.4657 51.14 94.844 51.4001 95.0442 51.6665V51.1936H95.7236V54.452H95.0442V53.9665C94.8377 54.2439 94.4468 54.504 93.9029 54.504C93.058 54.504 92.377 53.812 92.377 52.8063C92.377 51.8005 93.0564 51.1384 93.9139 51.1384L93.9155 51.14ZM94.0574 51.7248C93.5545 51.7248 93.0706 52.1032 93.0706 52.8063C93.0706 53.5093 93.5561 53.9176 94.0574 53.9176C94.5587 53.9176 95.0442 53.5219 95.0442 52.8173C95.0442 52.1126 94.565 51.7233 94.0574 51.7233V51.7248Z" fill="#002E6D"/>
<path d="M97.2843 51.192V55.0889C97.2843 55.751 96.9296 56.0001 96.3495 56.0001H96.0011V55.4326H96.2313C96.515 55.4326 96.6096 55.3317 96.6096 55.0889V51.192H97.2827H97.2843ZM96.5213 50.3282C96.5213 50.0854 96.7105 49.8962 96.9532 49.8962C97.196 49.8962 97.3789 50.0854 97.3789 50.3282C97.3789 50.5709 97.1897 50.7601 96.9532 50.7601C96.7168 50.7601 96.5213 50.5709 96.5213 50.3282Z" fill="#002E6D"/>
<path d="M99.485 51.14C100.035 51.14 100.413 51.4001 100.614 51.6665V51.1936H101.293V54.452H100.614V53.9665C100.407 54.2439 100.016 54.504 99.4724 54.504C98.6274 54.504 97.9464 53.812 97.9464 52.8063C97.9464 51.8005 98.6258 51.1384 99.4834 51.1384L99.485 51.14ZM99.6268 51.7248C99.124 51.7248 98.64 52.1032 98.64 52.8063C98.64 53.5093 99.1256 53.9176 99.6268 53.9176C100.128 53.9176 100.614 53.5219 100.614 52.8173C100.614 52.1126 100.134 51.7233 99.6268 51.7233V51.7248Z" fill="#002E6D"/>
<path d="M102.854 54.4504H102.181V51.192H102.854V51.6649C103.043 51.3402 103.368 51.1384 103.829 51.1384V51.8368H103.658C103.161 51.8368 102.854 52.0433 102.854 52.7353V54.4504Z" fill="#002E6D"/>
<path d="M107.862 54.4929C106.703 54.4929 105.762 53.6228 105.762 52.3869C105.762 51.151 106.702 50.2871 107.862 50.2871C109.022 50.2871 109.962 51.1557 109.962 52.3869C109.962 53.618 109.033 54.4929 107.862 54.4929ZM107.862 53.9065C108.678 53.9065 109.27 53.3154 109.27 52.3869C109.27 51.4584 108.678 50.8783 107.862 50.8783C107.045 50.8783 106.454 51.4584 106.454 52.3869C106.454 53.3154 107.045 53.9065 107.862 53.9065Z" fill="#002E6D"/>
<path d="M112.933 52.6297C112.933 52.0322 112.608 51.7248 112.117 51.7248C111.625 51.7248 111.294 52.0322 111.294 52.6297V54.4504H110.621V51.192H111.294V51.5641C111.513 51.2976 111.874 51.1384 112.263 51.1384C113.026 51.1384 113.6 51.6177 113.6 52.5288V54.4504H112.932V52.6297H112.933Z" fill="#002E6D"/>
<path d="M114.458 50.0759H115.132V54.452H114.458V50.0759Z" fill="#002E6D"/>
<path d="M115.93 50.3298C115.93 50.087 116.119 49.8978 116.362 49.8978C116.605 49.8978 116.787 50.087 116.787 50.3298C116.787 50.5725 116.598 50.7617 116.362 50.7617C116.125 50.7617 115.93 50.5725 115.93 50.3298ZM116.018 51.1936H116.693V54.452H116.018V51.1936Z" fill="#002E6D"/>
<path d="M119.891 52.6297C119.891 52.0322 119.567 51.7248 119.075 51.7248C118.583 51.7248 118.254 52.0322 118.254 52.6297V54.4504H117.579V51.192H118.254V51.5641C118.473 51.2976 118.834 51.1384 119.223 51.1384C119.986 51.1384 120.56 51.6177 120.56 52.5288V54.4504H119.891V52.6297Z" fill="#002E6D"/>
<path d="M122.817 54.504C121.882 54.504 121.19 53.842 121.19 52.8189C121.19 51.7958 121.852 51.14 122.817 51.14C123.782 51.14 124.401 51.7848 124.401 52.7416C124.401 52.8536 124.395 52.9608 124.378 53.0727H121.889C121.936 53.6102 122.321 53.9365 122.817 53.9365C123.232 53.9365 123.462 53.7348 123.586 53.481H124.313C124.13 54.0485 123.615 54.504 122.817 54.504ZM121.895 52.5288H123.698C123.687 52.0259 123.29 51.7059 122.787 51.7059C122.332 51.7059 121.964 52.0133 121.895 52.5288Z" fill="#002E6D"/>
<path d="M79.0359 27.2922C78.6434 27.2922 78.4353 27.1345 78.1468 26.7436L74.198 21.3555H71.6347V26.5071C71.6347 26.9517 71.2942 27.2654 70.8513 27.2654C70.4083 27.2654 70.093 26.9517 70.093 26.5071V9.97858C70.093 9.53404 70.4067 9.22034 70.8513 9.22034C71.2958 9.22034 71.6347 9.53404 71.6347 9.97858V19.9682H74.198L78.068 15.1823C78.3029 14.8418 78.5394 14.6589 78.9051 14.6589C79.5593 14.6589 79.821 15.2595 79.4537 15.7577L75.53 20.5956L79.6097 26.1146C80.0275 26.7152 79.635 27.2906 79.0343 27.2906" fill="#002E6D"/>
<path d="M92.9414 20.3624C92.9414 20.9898 92.5757 21.3823 91.9214 21.3823H82.4284C82.6112 24.0496 84.5723 26.1415 87.3452 26.1415C89.9084 26.1415 90.7187 24.8346 91.3208 24.8346C91.6866 24.8346 91.9214 25.0695 91.9214 25.41C91.9214 26.2739 89.9604 27.5287 87.2931 27.5287C83.5271 27.5287 80.8599 24.5729 80.8599 20.9646C80.8599 17.3562 83.3963 14.4257 86.9794 14.4257C90.7455 14.4257 92.943 17.4587 92.943 20.3624M82.43 20.2583H91.4012C91.1396 17.4602 89.3094 15.7861 86.9558 15.7861C84.6022 15.7861 82.7184 17.7203 82.4315 20.2583" fill="#002E6D"/>
<path d="M96.2486 9.22034C96.6931 9.22034 97.0336 9.53404 97.0336 9.97858V26.5071C97.0336 26.9517 96.6931 27.2654 96.2486 27.2654C95.8041 27.2654 95.4904 26.9517 95.4904 26.5071V9.97858C95.4904 9.53404 95.8041 9.22034 96.2486 9.22034Z" fill="#002E6D"/>
<path d="M112.375 15.4456V26.5088C112.375 26.9533 112.061 27.267 111.617 27.267C111.146 27.267 110.832 26.9533 110.832 26.5088V24.7306C109.812 26.4047 108.113 27.5287 105.942 27.5287C102.464 27.5287 99.8223 24.6518 99.8223 20.9646C99.8223 17.2774 102.411 14.4257 105.942 14.4257C108.113 14.4257 109.813 15.4976 110.832 17.1717V15.4456C110.832 15.001 111.146 14.6873 111.617 14.6873C112.061 14.6873 112.375 15.001 112.375 15.4456ZM110.832 20.9378C110.832 18.1129 108.871 15.8649 106.125 15.8649C103.379 15.8649 101.366 18.1144 101.366 20.9378C101.366 23.7611 103.38 26.0894 106.125 26.0894C108.869 26.0894 110.832 23.7627 110.832 20.9378Z" fill="#002E6D"/>
<path d="M119.825 27.5271C117.027 27.5271 114.908 26.0106 114.908 25.1199C114.908 24.7022 115.197 24.5193 115.563 24.5193C116.242 24.5193 117.106 26.1935 119.956 26.1935C121.813 26.1935 122.885 25.3044 122.885 23.996C122.885 20.5957 115.353 22.243 115.353 17.7723C115.353 15.8633 117 14.4241 119.746 14.4241C122.021 14.4241 123.878 15.496 123.878 16.2811C123.878 16.6468 123.616 16.8565 123.278 16.8565C122.571 16.8565 121.734 15.7577 119.642 15.7577C117.943 15.7577 116.869 16.5948 116.869 17.7187C116.869 20.8574 124.402 19.3409 124.402 23.9171C124.402 26.0358 122.702 27.5255 119.825 27.5255" fill="#002E6D"/>
<path d="M15.7246 6.30869C15.1776 6.90457 14.4919 7.74006 14.0647 8.96177C13.8724 9.40316 13.7699 9.96278 13.7321 10.5839C13.7352 10.5823 13.7384 10.5792 13.7431 10.5776C13.7005 11.8687 13.9732 13.825 14.153 14.9363C14.1451 14.9379 14.1388 14.9395 14.1309 14.9426C14.3878 16.2968 14.6684 17.3041 14.6684 17.3041L17.2837 26.8586L18.2122 30.8879H18.2453C18.2453 30.8879 18.2532 30.8879 18.2579 30.8879L22.1122 45.468L22.5883 47.262C24.1473 53.0994 31.7929 54.9217 36.2525 50.522L41.8077 45.0408C40.4142 43.1554 38.223 42.1954 36.3392 43.5212C33.9305 45.2158 29.3825 51.6081 28.3185 49.7653C27.4972 48.345 31.2301 44.1423 33.6231 38.6517C36.016 33.1595 31.2884 29.9641 28.3074 26.4062C25.3265 22.8498 24.3318 19.85 24.8772 19.4212C25.76 18.726 26.638 20.4506 27.8913 21.934C29.9485 24.3648 31.1103 25.8891 37.7059 28.6242C36.8436 27.661 36.3881 26.3447 36.5709 24.9622C36.9035 22.4494 39.2098 20.6807 41.7226 21.0133C44.2354 21.346 46.0041 23.6522 45.6715 26.165C45.4066 28.1623 43.8949 29.6851 42.0237 30.0603C47.2526 31.2915 50.0949 30.6278 52.1946 29.9468C55.6312 28.8323 55.0621 31.3261 49.9782 32.7465C44.4088 34.304 43.1918 34.7359 42.8087 36.7758C42.4272 38.803 43.6663 40.7388 44.6468 42.238L61.8784 25.2365C65.8226 21.3444 64.0318 14.64 58.672 13.2338L55.7904 12.4771L53.2303 11.8813C51.6586 11.5833 50.3518 11.0868 49.19 10.9118L23.9392 4.06075C23.1794 3.85897 22.4196 3.76123 21.6787 3.76123C19.344 3.76123 17.1844 4.71495 15.7246 6.30869Z" fill="#FF9E16"/>
<path d="M11.8955 13.0873C11.9996 12.4946 12.4205 11.8483 12.8177 11.3958C13.3111 10.8362 13.9259 10.3854 14.6195 10.0843C16.8911 9.33075 18.6315 10.7873 16.095 13.6233C15.217 14.6054 14.2302 15.0436 13.4294 15.0436C12.4 15.0436 11.6796 14.3185 11.8955 13.0873ZM6.44434 9.66652C8.47631 9.66652 10.1599 10.7038 11.0506 12.575C11.3737 13.4814 11.5708 14.7567 11.0742 16.0399C12.2644 16.9668 16.0872 16.9716 17.8354 19.4323C18.9404 20.9898 19.3062 23.5325 17.4555 26.389C16.3157 28.1482 14.6731 29.258 14.8639 30.2953C15.0373 31.2427 17.3609 30.9069 18.2106 30.8849H18.2437C20.1448 30.8912 25.0726 30.7918 26.0878 34.7344C27.2764 39.3548 23.1352 44.2669 22.109 45.4665L22.5851 47.2589C24.1441 53.0963 31.7897 54.9186 36.2493 50.5189L41.8045 45.0378C40.411 43.1524 38.2198 42.1924 36.336 43.5181C33.9273 45.2127 29.3794 51.605 28.3153 49.7622C27.494 48.3419 31.2269 44.1392 33.6199 38.6486C36.0128 33.1564 31.2852 29.9611 28.3043 26.4032C25.3233 22.8468 24.3286 19.8469 24.874 19.4181C25.7568 18.7229 26.6349 20.4475 27.8881 21.9309C29.9453 24.3617 31.1071 25.8861 37.7027 28.6211C36.8405 27.658 36.3849 26.3417 36.5677 24.9592C36.9004 22.4464 39.2066 20.6777 41.7194 21.0103C44.2322 21.3429 46.0009 23.6492 45.6683 26.162C45.4035 28.1593 43.8917 29.6821 42.0205 30.0572C47.2494 31.2884 50.0917 30.6248 52.1914 29.9437C55.628 28.8292 55.0589 31.3231 49.975 32.7434C44.4056 34.3009 43.1886 34.7328 42.8056 36.7727C42.4241 38.8 43.6631 40.7358 44.6436 42.2349L61.8753 25.2335C65.8194 21.3413 64.0286 14.6369 58.6689 13.2308L55.7872 12.4741L53.2271 11.8782C49.0449 11.0853 46.7387 8.88305 44.0273 15.0736C40.6412 22.8011 36.3187 18.7135 36.3691 14.5203C36.4448 8.232 32.5211 10.1363 29.0546 11.5251C24.8724 13.2024 22.8152 13.3695 20.6761 10.8441C19.8075 9.81944 19.128 8.97606 18.4581 8.37388C18.168 8.70177 16.7776 10.048 14.3137 9.09902C12.6711 8.25249 11.5471 6.53895 11.5471 4.56372C11.5471 7.38075 9.26451 9.66495 6.44749 9.66495" fill="#FFCC00"/>
<path d="M1.00574 9.69956L2.59159 11.3327L4.21213 9.69956L2.59159 8.03015L1.00574 9.69956Z" fill="#FFBF1B"/>
<path d="M9.60498 1.92636C10.6675 1.92636 11.5313 2.78865 11.5313 3.85114C11.5313 2.78707 12.3936 1.92636 13.4577 1.92636C12.3936 1.92636 11.5313 1.06407 11.5313 0C11.5313 1.06249 10.669 1.92636 9.60498 1.92636Z" fill="#FFBF1B"/>
<path d="M3.5343 4.35722C4.95621 4.35722 6.10856 5.50957 6.10856 6.93148C6.10856 5.50957 7.26091 4.35722 8.68282 4.35722C7.26091 4.35722 6.10856 3.20487 6.10856 1.78296C6.10856 3.20487 4.95621 4.35722 3.5343 4.35722Z" fill="#FFBF1B"/>
<path d="M0 4.7166L0.969485 5.71446L1.95789 4.7166L0.969485 3.69824L0 4.7166Z" fill="#FFBF1B"/>
<path d="M1.84436 15.2627C4.11753 15.2627 5.96034 17.1055 5.96034 19.3787C5.96034 17.1055 7.80315 15.2627 10.0763 15.2627C7.80315 15.2627 5.96034 13.4199 5.96034 11.1467C5.96034 13.4199 4.11753 15.2627 1.84436 15.2627Z" fill="#FFBF1B"/>
<path d="M22.6418 5.87844C21.9766 6.84793 22.708 8.50473 24.275 9.57983C25.8419 10.6534 27.65 10.7385 28.3153 9.769C28.9805 8.79951 28.2491 7.14272 26.6821 6.06919C25.8466 5.49696 24.9418 5.20532 24.1788 5.20532C23.512 5.20532 22.9524 5.42759 22.6418 5.88002" fill="#FFCC00"/>
<path d="M72.4276 30.7728C72.4276 31.7423 73.2016 32.5163 74.1475 32.5163C75.0933 32.5163 75.891 31.7407 75.891 30.7728C75.891 29.8049 75.1154 29.053 74.1475 29.053C73.1796 29.053 72.4276 29.8286 72.4276 30.7728Z" fill="#FF9E16"/>
<path d="M70.7409 40.3006C70.7409 44.1707 68.0405 46.8459 64.7663 46.8459C63.13 46.8459 61.8563 46.1964 60.9483 45.1307V50.3265C60.9483 51.2613 60.2988 51.9376 59.364 51.9376C58.4292 51.9376 57.7529 51.2629 57.7529 50.3265V35.573C57.7529 34.6382 58.4024 33.9887 59.364 33.9887C60.2216 33.9887 60.8443 34.5342 60.9483 35.3649C61.8311 34.3261 63.1048 33.7286 64.7663 33.7286C68.195 33.7286 70.7409 36.5598 70.7409 40.3006ZM67.5455 40.3274C67.5455 38.3018 66.1693 36.6907 64.2477 36.6907C62.3261 36.6907 60.9483 38.3018 60.9483 40.3274C60.9483 42.3531 62.3513 43.8854 64.2477 43.8854C66.1441 43.8854 67.5455 42.3011 67.5455 40.3274Z" fill="#002E6D"/>
<path d="M74.1585 46.5858C73.2237 46.5858 72.5742 45.9363 72.5742 45.0015V35.5731C72.5742 34.6382 73.2237 33.9888 74.1333 33.9888C75.0933 33.9888 75.7444 34.6382 75.7444 35.5731V45.0015C75.7444 45.9363 75.0949 46.5858 74.1601 46.5858" fill="#002E6D"/>
<path d="M89.6229 38.9765V45.0031C89.6229 45.9379 88.9734 46.5873 88.0386 46.5873C87.1038 46.5873 86.4291 45.9379 86.4291 45.0031V39.4447C86.4291 37.7563 85.4423 36.6907 83.9085 36.6907C82.3746 36.6907 81.3894 37.7548 81.3894 39.4447V45.0031C81.3894 45.9379 80.7399 46.5873 79.8051 46.5873C78.8703 46.5873 78.2208 45.9379 78.2208 45.0031V35.5746C78.2208 34.6398 78.8703 33.9903 79.7799 33.9903C80.6895 33.9903 81.2601 34.5105 81.3642 35.3145C82.1445 34.3009 83.3646 33.7302 84.8717 33.7302C87.7549 33.7302 89.6261 35.7307 89.6261 38.9781" fill="#002E6D"/>
<path d="M99.0388 43.4959C99.8964 43.4959 100.338 44.0681 100.338 44.6908C100.338 45.8857 99.0388 46.8473 96.9879 46.8473C94.4168 46.8473 92.7805 45.2883 92.7805 42.249V36.8719H91.6376C90.8069 36.8719 90.2346 36.3012 90.2346 35.4437C90.2346 34.6381 90.8053 34.0675 91.6376 34.0675H92.8073V32.3791C92.8073 31.4191 93.4568 30.7681 94.3664 30.7681C95.328 30.7681 95.9774 31.4175 95.9774 32.3791V34.0675H98.3152C99.1208 34.0675 99.6914 34.6381 99.6914 35.4705C99.6914 36.3028 99.1208 36.8735 98.3152 36.8735H96.0295V42.6131C96.0295 43.5479 96.4456 43.8853 97.1471 43.8853C97.8486 43.8853 98.4461 43.4959 99.0435 43.4959" fill="#002E6D"/>
<path d="M113.482 35.573V45.0015C113.482 45.9363 112.832 46.5857 111.897 46.5857C110.963 46.5857 110.338 45.9883 110.286 45.1323C109.404 46.1964 108.13 46.8459 106.494 46.8459C103.194 46.8459 100.519 44.1707 100.519 40.2738C100.519 36.377 103.038 33.7286 106.494 33.7286C108.13 33.7286 109.402 34.3261 110.286 35.3649C110.39 34.5342 111.013 33.9887 111.897 33.9887C112.832 33.9887 113.482 34.6382 113.482 35.573ZM110.286 40.2738C110.286 38.2734 108.91 36.6891 107.014 36.6891C105.117 36.6891 103.689 38.2734 103.689 40.2738C103.689 42.2743 105.092 43.8838 107.014 43.8838C108.935 43.8838 110.286 42.2727 110.286 40.2738Z" fill="#002E6D"/>
<path d="M124.403 35.4438C124.403 36.3786 123.754 36.9508 122.846 36.9508C122.352 36.9508 121.807 36.7947 121.079 36.7947C119.936 36.7947 119.182 37.6523 119.182 38.9765V45.0031C119.182 45.9379 118.533 46.5873 117.598 46.5873C116.663 46.5873 116.014 45.9379 116.014 45.0031V35.5746C116.014 34.6398 116.663 33.9903 117.573 33.9903C118.482 33.9903 119.105 34.5626 119.184 35.3933C119.858 34.4317 120.897 33.7302 122.275 33.7302C123.314 33.7302 124.405 34.2757 124.405 35.4453" fill="#002E6D"/>
</svg>
